STARTFONT 2.1
COMMENT Exported by Fony v1.4.7
FONT topaz 11
SIZE 11 96 96
FONTBOUNDINGBOX 8 10 0 -2
STARTPROPERTIES 6
COPYRIGHT "Unknown (Converted from Amiga font using Fony)"
RESOLUTION_X 96
RESOLUTION_Y 96
FONT_ASCENT 9
FONT_DESCENT 2
DEFAULT_CHAR 255
ENDPROPERTIES
CHARS 224
STARTCHAR 032
ENCODING 32
SWIDTH 576 0
DWIDTH 8 0
BBX 0 0 0 0
BITMAP
ENDCHAR
STARTCHAR 033
ENCODING 33
SWIDTH 576 0
DWIDTH 8 0
BBX 2 9 3 0
BITMAP
C0
C0
C0
C0
C0
C0
00
C0
C0
ENDCHAR
STARTCHAR 034
ENCODING 34
SWIDTH 576 0
DWIDTH 8 0
BBX 6 3 1 6
BITMAP
CC
CC
CC
ENDCHAR
STARTCHAR 035
ENCODING 35
SWIDTH 576 0
DWIDTH 8 0
BBX 7 9 0 0
BITMAP
6C
6C
FE
6C
6C
6C
FE
6C
6C
ENDCHAR
STARTCHAR 036
ENCODING 36
SWIDTH 576 0
DWIDTH 8 0
BBX 6 9 1 0
BITMAP
30
7C
C0
C0
78
0C
0C
F8
30
ENDCHAR
STARTCHAR 037
ENCODING 37
SWIDTH 576 0
DWIDTH 8 0
BBX 8 7 0 0
BITMAP
63
96
6C
18
36
69
C6
ENDCHAR
STARTCHAR 038
ENCODING 38
SWIDTH 576 0
DWIDTH 8 0
BBX 8 9 0 0
BITMAP
38
6C
6C
78
76
DC
CC
CE
7B
ENDCHAR
STARTCHAR 039
ENCODING 39
SWIDTH 576 0
DWIDTH 8 0
BBX 3 3 2 6
BITMAP
60
60
C0
ENDCHAR
STARTCHAR 040
ENCODING 40
SWIDTH 576 0
DWIDTH 8 0
BBX 4 9 2 0
BITMAP
30
60
C0
C0
C0
C0
C0
60
30
ENDCHAR
STARTCHAR 041
ENCODING 41
SWIDTH 576 0
DWIDTH 8 0
BBX 4 9 2 0
BITMAP
C0
60
30
30
30
30
30
60
C0
ENDCHAR
STARTCHAR 042
ENCODING 42
SWIDTH 576 0
DWIDTH 8 0
BBX 8 7 0 1
BITMAP
66
66
3C
FF
3C
66
66
ENDCHAR
STARTCHAR 043
ENCODING 43
SWIDTH 576 0
DWIDTH 8 0
BBX 6 7 1 1
BITMAP
30
30
30
FC
30
30
30
ENDCHAR
STARTCHAR 044
ENCODING 44
SWIDTH 576 0
DWIDTH 8 0
BBX 3 3 2 -1
BITMAP
60
60
C0
ENDCHAR
STARTCHAR 045
ENCODING 45
SWIDTH 576 0
DWIDTH 8 0
BBX 6 1 1 4
BITMAP
FC
ENDCHAR
STARTCHAR 046
ENCODING 46
SWIDTH 576 0
DWIDTH 8 0
BBX 2 2 3 0
BITMAP
C0
C0
ENDCHAR
STARTCHAR 047
ENCODING 47
SWIDTH 576 0
DWIDTH 8 0
BBX 8 7 0 1
BITMAP
03
06
0C
18
30
60
C0
ENDCHAR
STARTCHAR 048
ENCODING 48
SWIDTH 576 0
DWIDTH 8 0
BBX 6 9 1 0
BITMAP
78
CC
CC
DC
FC
EC
CC
CC
78
ENDCHAR
STARTCHAR 049
ENCODING 49
SWIDTH 576 0
DWIDTH 8 0
BBX 4 9 1 0
BITMAP
30
70
F0
30
30
30
30
30
30
ENDCHAR
STARTCHAR 050
ENCODING 50
SWIDTH 576 0
DWIDTH 8 0
BBX 6 9 1 0
BITMAP
78
CC
0C
0C
18
30
60
C0
FC
ENDCHAR
STARTCHAR 051
ENCODING 51
SWIDTH 576 0
DWIDTH 8 0
BBX 6 9 1 0
BITMAP
78
CC
0C
0C
38
0C
0C
CC
78
ENDCHAR
STARTCHAR 052
ENCODING 52
SWIDTH 576 0
DWIDTH 8 0
BBX 7 9 0 0
BITMAP
0C
1C
3C
6C
CC
FE
0C
0C
0C
ENDCHAR
STARTCHAR 053
ENCODING 53
SWIDTH 576 0
DWIDTH 8 0
BBX 6 9 1 0
BITMAP
FC
C0
C0
F8
0C
0C
0C
CC
78
ENDCHAR
STARTCHAR 054
ENCODING 54
SWIDTH 576 0
DWIDTH 8 0
BBX 6 9 1 0
BITMAP
38
60
C0
C0
F8
CC
CC
CC
78
ENDCHAR
STARTCHAR 055
ENCODING 55
SWIDTH 576 0
DWIDTH 8 0
BBX 6 9 1 0
BITMAP
FC
0C
0C
0C
18
30
30
30
30
ENDCHAR
STARTCHAR 056
ENCODING 56
SWIDTH 576 0
DWIDTH 8 0
BBX 6 9 1 0
BITMAP
78
CC
CC
CC
78
CC
CC
CC
78
ENDCHAR
STARTCHAR 057
ENCODING 57
SWIDTH 576 0
DWIDTH 8 0
BBX 6 9 1 0
BITMAP
78
CC
CC
CC
7C
0C
0C
18
70
ENDCHAR
STARTCHAR 058
ENCODING 58
SWIDTH 576 0
DWIDTH 8 0
BBX 2 6 3 1
BITMAP
C0
C0
00
00
C0
C0
ENDCHAR
STARTCHAR 059
ENCODING 59
SWIDTH 576 0
DWIDTH 8 0
BBX 3 8 2 -1
BITMAP
60
60
00
00
00
60
60
C0
ENDCHAR
STARTCHAR 060
ENCODING 60
SWIDTH 576 0
DWIDTH 8 0
BBX 6 5 1 2
BITMAP
0C
30
C0
30
0C
ENDCHAR
STARTCHAR 061
ENCODING 61
SWIDTH 576 0
DWIDTH 8 0
BBX 6 3 1 3
BITMAP
FC
00
FC
ENDCHAR
STARTCHAR 062
ENCODING 62
SWIDTH 576 0
DWIDTH 8 0
BBX 6 5 1 2
BITMAP
C0
30
0C
30
C0
ENDCHAR
STARTCHAR 063
ENCODING 63
SWIDTH 576 0
DWIDTH 8 0
BBX 6 9 1 0
BITMAP
78
CC
0C
0C
18
30
00
30
30
ENDCHAR
STARTCHAR 064
ENCODING 64
SWIDTH 576 0
DWIDTH 8 0
BBX 7 9 0 0
BITMAP
7C
C6
C6
DE
D6
DE
C0
C0
78
ENDCHAR
STARTCHAR 065
ENCODING 65
SWIDTH 576 0
DWIDTH 8 0
BBX 7 9 0 0
BITMAP
7C
C6
C6
C6
FE
C6
C6
C6
C6
ENDCHAR
STARTCHAR 066
ENCODING 66
SWIDTH 576 0
DWIDTH 8 0
BBX 6 9 1 0
BITMAP
F8
CC
CC
CC
F8
CC
CC
CC
F8
ENDCHAR
STARTCHAR 067
ENCODING 67
SWIDTH 576 0
DWIDTH 8 0
BBX 6 9 1 0
BITMAP
3C
60
C0
C0
C0
C0
C0
60
3C
ENDCHAR
STARTCHAR 068
ENCODING 68
SWIDTH 576 0
DWIDTH 8 0
BBX 7 9 0 0
BITMAP
F8
CC
C6
C6
C6
C6
C6
CC
F8
ENDCHAR
STARTCHAR 069
ENCODING 69
SWIDTH 576 0
DWIDTH 8 0
BBX 6 9 1 0
BITMAP
FC
C0
C0
C0
F0
C0
C0
C0
FC
ENDCHAR
STARTCHAR 070
ENCODING 70
SWIDTH 576 0
DWIDTH 8 0
BBX 6 9 1 0
BITMAP
FC
C0
C0
C0
F0
C0
C0
C0
C0
ENDCHAR
STARTCHAR 071
ENCODING 71
SWIDTH 576 0
DWIDTH 8 0
BBX 6 9 1 0
BITMAP
78
CC
C0
C0
DC
CC
CC
CC
7C
ENDCHAR
STARTCHAR 072
ENCODING 72
SWIDTH 576 0
DWIDTH 8 0
BBX 7 9 0 0
BITMAP
C6
C6
C6
C6
FE
C6
C6
C6
C6
ENDCHAR
STARTCHAR 073
ENCODING 73
SWIDTH 576 0
DWIDTH 8 0
BBX 4 9 2 0
BITMAP
F0
60
60
60
60
60
60
60
F0
ENDCHAR
STARTCHAR 074
ENCODING 74
SWIDTH 576 0
DWIDTH 8 0
BBX 7 9 0 0
BITMAP
06
06
06
06
06
06
06
C6
7C
ENDCHAR
STARTCHAR 075
ENCODING 75
SWIDTH 576 0
DWIDTH 8 0
BBX 8 9 0 0
BITMAP
C3
C6
CC
D8
F0
D8
CC
C6
C3
ENDCHAR
STARTCHAR 076
ENCODING 76
SWIDTH 576 0
DWIDTH 8 0
BBX 7 9 0 0
BITMAP
C0
C0
C0
C0
C0
C0
C0
C0
FE
ENDCHAR
STARTCHAR 077
ENCODING 77
SWIDTH 576 0
DWIDTH 8 0
BBX 8 9 0 0
BITMAP
C3
E7
FF
DB
C3
C3
C3
C3
C3
ENDCHAR
STARTCHAR 078
ENCODING 78
SWIDTH 576 0
DWIDTH 8 0
BBX 7 9 0 0
BITMAP
C6
E6
F6
DE
CE
C6
C6
C6
C6
ENDCHAR
STARTCHAR 079
ENCODING 79
SWIDTH 576 0
DWIDTH 8 0
BBX 7 9 0 0
BITMAP
7C
C6
C6
C6
C6
C6
C6
C6
7C
ENDCHAR
STARTCHAR 080
ENCODING 80
SWIDTH 576 0
DWIDTH 8 0
BBX 6 9 1 0
BITMAP
F8
CC
CC
CC
F8
C0
C0
C0
C0
ENDCHAR
STARTCHAR 081
ENCODING 81
SWIDTH 576 0
DWIDTH 8 0
BBX 8 9 0 0
BITMAP
7C
C6
C6
C6
C6
C6
C6
DE
7F
ENDCHAR
STARTCHAR 082
ENCODING 82
SWIDTH 576 0
DWIDTH 8 0
BBX 7 9 0 0
BITMAP
F8
CC
CC
CC
F8
D8
CC
C6
C6
ENDCHAR
STARTCHAR 083
ENCODING 83
SWIDTH 576 0
DWIDTH 8 0
BBX 6 9 1 0
BITMAP
78
CC
C0
60
30
18
0C
CC
78
ENDCHAR
STARTCHAR 084
ENCODING 84
SWIDTH 576 0
DWIDTH 8 0
BBX 6 9 1 0
BITMAP
FC
30
30
30
30
30
30
30
30
ENDCHAR
STARTCHAR 085
ENCODING 85
SWIDTH 576 0
DWIDTH 8 0
BBX 7 9 0 0
BITMAP
C6
C6
C6
C6
C6
C6
C6
C6
7C
ENDCHAR
STARTCHAR 086
ENCODING 86
SWIDTH 576 0
DWIDTH 8 0
BBX 8 9 0 0
BITMAP
C3
C3
C3
C3
C3
66
66
3C
18
ENDCHAR
STARTCHAR 087
ENCODING 87
SWIDTH 576 0
DWIDTH 8 0
BBX 8 9 0 0
BITMAP
C3
C3
C3
C3
C3
DB
FF
E7
C3
ENDCHAR
STARTCHAR 088
ENCODING 88
SWIDTH 576 0
DWIDTH 8 0
BBX 8 9 0 0
BITMAP
C3
C3
66
3C
18
3C
66
C3
C3
ENDCHAR
STARTCHAR 089
ENCODING 89
SWIDTH 576 0
DWIDTH 8 0
BBX 8 9 0 0
BITMAP
C3
C3
66
3C
18
18
18
18
18
ENDCHAR
STARTCHAR 090
ENCODING 90
SWIDTH 576 0
DWIDTH 8 0
BBX 7 9 0 0
BITMAP
FE
06
06
0C
18
30
60
C0
FE
ENDCHAR
STARTCHAR 091
ENCODING 91
SWIDTH 576 0
DWIDTH 8 0
BBX 4 9 2 0
BITMAP
F0
C0
C0
C0
C0
C0
C0
C0
F0
ENDCHAR
STARTCHAR 092
ENCODING 92
SWIDTH 576 0
DWIDTH 8 0
BBX 8 7 0 1
BITMAP
C0
60
30
18
0C
06
03
ENDCHAR
STARTCHAR 093
ENCODING 93
SWIDTH 576 0
DWIDTH 8 0
BBX 4 9 2 0
BITMAP
F0
30
30
30
30
30
30
30
F0
ENDCHAR
STARTCHAR 094
ENCODING 94
SWIDTH 576 0
DWIDTH 8 0
BBX 7 4 0 5
BITMAP
10
38
6C
C6
ENDCHAR
STARTCHAR 095
ENCODING 95
SWIDTH 576 0
DWIDTH 8 0
BBX 7 1 0 -1
BITMAP
FE
ENDCHAR
STARTCHAR 096
ENCODING 96
SWIDTH 576 0
DWIDTH 8 0
BBX 3 3 3 6
BITMAP
C0
C0
60
ENDCHAR
STARTCHAR 097
ENCODING 97
SWIDTH 576 0
DWIDTH 8 0
BBX 6 6 1 0
BITMAP
78
0C
7C
CC
CC
7C
ENDCHAR
STARTCHAR 098
ENCODING 98
SWIDTH 576 0
DWIDTH 8 0
BBX 6 9 1 0
BITMAP
C0
C0
C0
F8
CC
CC
CC
CC
F8
ENDCHAR
STARTCHAR 099
ENCODING 99
SWIDTH 576 0
DWIDTH 8 0
BBX 5 6 1 0
BITMAP
78
C0
C0
C0
C0
78
ENDCHAR
STARTCHAR 100
ENCODING 100
SWIDTH 576 0
DWIDTH 8 0
BBX 6 9 1 0
BITMAP
0C
0C
0C
7C
CC
CC
CC
CC
7C
ENDCHAR
STARTCHAR 101
ENCODING 101
SWIDTH 576 0
DWIDTH 8 0
BBX 6 6 1 0
BITMAP
78
CC
FC
C0
C0
78
ENDCHAR
STARTCHAR 102
ENCODING 102
SWIDTH 576 0
DWIDTH 8 0
BBX 5 9 1 0
BITMAP
38
60
60
F8
60
60
60
60
60
ENDCHAR
STARTCHAR 103
ENCODING 103
SWIDTH 576 0
DWIDTH 8 0
BBX 6 8 1 -2
BITMAP
7C
CC
CC
CC
7C
0C
0C
78
ENDCHAR
STARTCHAR 104
ENCODING 104
SWIDTH 576 0
DWIDTH 8 0
BBX 6 9 1 0
BITMAP
C0
C0
C0
F8
CC
CC
CC
CC
CC
ENDCHAR
STARTCHAR 105
ENCODING 105
SWIDTH 576 0
DWIDTH 8 0
BBX 3 8 3 0
BITMAP
C0
00
C0
C0
C0
C0
C0
60
ENDCHAR
STARTCHAR 106
ENCODING 106
SWIDTH 576 0
DWIDTH 8 0
BBX 5 10 1 -2
BITMAP
18
00
18
18
18
18
18
18
18
F0
ENDCHAR
STARTCHAR 107
ENCODING 107
SWIDTH 576 0
DWIDTH 8 0
BBX 7 9 0 0
BITMAP
C0
C0
C0
CC
D8
F0
D8
CC
C6
ENDCHAR
STARTCHAR 108
ENCODING 108
SWIDTH 576 0
DWIDTH 8 0
BBX 3 9 3 0
BITMAP
C0
C0
C0
C0
C0
C0
C0
C0
60
ENDCHAR
STARTCHAR 109
ENCODING 109
SWIDTH 576 0
DWIDTH 8 0
BBX 7 6 0 0
BITMAP
EC
FE
D6
C6
C6
C6
ENDCHAR
STARTCHAR 110
ENCODING 110
SWIDTH 576 0
DWIDTH 8 0
BBX 6 6 1 0
BITMAP
F8
CC
CC
CC
CC
CC
ENDCHAR
STARTCHAR 111
ENCODING 111
SWIDTH 576 0
DWIDTH 8 0
BBX 6 6 1 0
BITMAP
78
CC
CC
CC
CC
78
ENDCHAR
STARTCHAR 112
ENCODING 112
SWIDTH 576 0
DWIDTH 8 0
BBX 6 8 1 -2
BITMAP
F8
CC
CC
CC
F8
C0
C0
C0
ENDCHAR
STARTCHAR 113
ENCODING 113
SWIDTH 576 0
DWIDTH 8 0
BBX 6 8 1 -2
BITMAP
7C
CC
CC
CC
7C
0C
0C
0C
ENDCHAR
STARTCHAR 114
ENCODING 114
SWIDTH 576 0
DWIDTH 8 0
BBX 6 6 1 0
BITMAP
F8
CC
C0
C0
C0
C0
ENDCHAR
STARTCHAR 115
ENCODING 115
SWIDTH 576 0
DWIDTH 8 0
BBX 6 6 1 0
BITMAP
78
C0
60
18
0C
F8
ENDCHAR
STARTCHAR 116
ENCODING 116
SWIDTH 576 0
DWIDTH 8 0
BBX 5 8 1 0
BITMAP
60
60
F8
60
60
60
60
38
ENDCHAR
STARTCHAR 117
ENCODING 117
SWIDTH 576 0
DWIDTH 8 0
BBX 6 6 1 0
BITMAP
CC
CC
CC
CC
CC
7C
ENDCHAR
STARTCHAR 118
ENCODING 118
SWIDTH 576 0
DWIDTH 8 0
BBX 6 6 1 0
BITMAP
CC
CC
CC
CC
78
30
ENDCHAR
STARTCHAR 119
ENCODING 119
SWIDTH 576 0
DWIDTH 8 0
BBX 7 6 0 0
BITMAP
C6
C6
C6
D6
7C
6C
ENDCHAR
STARTCHAR 120
ENCODING 120
SWIDTH 576 0
DWIDTH 8 0
BBX 7 6 0 0
BITMAP
C6
6C
38
38
6C
C6
ENDCHAR
STARTCHAR 121
ENCODING 121
SWIDTH 576 0
DWIDTH 8 0
BBX 6 8 1 -2
BITMAP
CC
CC
CC
CC
78
30
60
C0
ENDCHAR
STARTCHAR 122
ENCODING 122
SWIDTH 576 0
DWIDTH 8 0
BBX 6 6 1 0
BITMAP
FC
18
30
60
C0
FC
ENDCHAR
STARTCHAR 123
ENCODING 123
SWIDTH 576 0
DWIDTH 8 0
BBX 6 9 1 0
BITMAP
1C
30
30
30
E0
30
30
30
1C
ENDCHAR
STARTCHAR 124
ENCODING 124
SWIDTH 576 0
DWIDTH 8 0
BBX 2 9 3 0
BITMAP
C0
C0
C0
C0
C0
C0
C0
C0
C0
ENDCHAR
STARTCHAR 125
ENCODING 125
SWIDTH 576 0
DWIDTH 8 0
BBX 6 9 1 0
BITMAP
E0
30
30
30
1C
30
30
30
E0
ENDCHAR
STARTCHAR 126
ENCODING 126
SWIDTH 576 0
DWIDTH 8 0
BBX 7 3 0 6
BITMAP
62
BA
8C
ENDCHAR
STARTCHAR 127
ENCODING 127
SWIDTH 576 0
DWIDTH 8 0
BBX 8 9 0 0
BITMAP
03
0F
3C
F0
C3
0F
3C
F0
C0
ENDCHAR
STARTCHAR 128
ENCODING 128
SWIDTH 576 0
DWIDTH 8 0
BBX 6 9 1 -1
BITMAP
FC
CC
CC
CC
CC
CC
CC
CC
FC
ENDCHAR
STARTCHAR 129
ENCODING 129
SWIDTH 576 0
DWIDTH 8 0
BBX 6 9 1 -1
BITMAP
FC
CC
CC
CC
CC
CC
CC
CC
FC
ENDCHAR
STARTCHAR 130
ENCODING 130
SWIDTH 576 0
DWIDTH 8 0
BBX 6 9 1 -1
BITMAP
FC
CC
CC
CC
CC
CC
CC
CC
FC
ENDCHAR
STARTCHAR 131
ENCODING 131
SWIDTH 576 0
DWIDTH 8 0
BBX 6 9 1 -1
BITMAP
FC
CC
CC
CC
CC
CC
CC
CC
FC
ENDCHAR
STARTCHAR 132
ENCODING 132
SWIDTH 576 0
DWIDTH 8 0
BBX 6 9 1 -1
BITMAP
FC
CC
CC
CC
CC
CC
CC
CC
FC
ENDCHAR
STARTCHAR 133
ENCODING 133
SWIDTH 576 0
DWIDTH 8 0
BBX 6 9 1 -1
BITMAP
FC
CC
CC
CC
CC
CC
CC
CC
FC
ENDCHAR
STARTCHAR 134
ENCODING 134
SWIDTH 576 0
DWIDTH 8 0
BBX 6 9 1 -1
BITMAP
FC
CC
CC
CC
CC
CC
CC
CC
FC
ENDCHAR
STARTCHAR 135
ENCODING 135
SWIDTH 576 0
DWIDTH 8 0
BBX 6 9 1 -1
BITMAP
FC
CC
CC
CC
CC
CC
CC
CC
FC
ENDCHAR
STARTCHAR 136
ENCODING 136
SWIDTH 576 0
DWIDTH 8 0
BBX 6 9 1 -1
BITMAP
FC
CC
CC
CC
CC
CC
CC
CC
FC
ENDCHAR
STARTCHAR 137
ENCODING 137
SWIDTH 576 0
DWIDTH 8 0
BBX 6 9 1 -1
BITMAP
FC
CC
CC
CC
CC
CC
CC
CC
FC
ENDCHAR
STARTCHAR 138
ENCODING 138
SWIDTH 576 0
DWIDTH 8 0
BBX 6 9 1 -1
BITMAP
FC
CC
CC
CC
CC
CC
CC
CC
FC
ENDCHAR
STARTCHAR 139
ENCODING 139
SWIDTH 576 0
DWIDTH 8 0
BBX 6 9 1 -1
BITMAP
FC
CC
CC
CC
CC
CC
CC
CC
FC
ENDCHAR
STARTCHAR 140
ENCODING 140
SWIDTH 576 0
DWIDTH 8 0
BBX 6 9 1 -1
BITMAP
FC
CC
CC
CC
CC
CC
CC
CC
FC
ENDCHAR
STARTCHAR 141
ENCODING 141
SWIDTH 576 0
DWIDTH 8 0
BBX 6 9 1 -1
BITMAP
FC
CC
CC
CC
CC
CC
CC
CC
FC
ENDCHAR
STARTCHAR 142
ENCODING 142
SWIDTH 576 0
DWIDTH 8 0
BBX 6 9 1 -1
BITMAP
FC
CC
CC
CC
CC
CC
CC
CC
FC
ENDCHAR
STARTCHAR 143
ENCODING 143
SWIDTH 576 0
DWIDTH 8 0
BBX 6 9 1 -1
BITMAP
FC
CC
CC
CC
CC
CC
CC
CC
FC
ENDCHAR
STARTCHAR 144
ENCODING 144
SWIDTH 576 0
DWIDTH 8 0
BBX 6 9 1 -1
BITMAP
FC
CC
CC
CC
CC
CC
CC
CC
FC
ENDCHAR
STARTCHAR 145
ENCODING 145
SWIDTH 576 0
DWIDTH 8 0
BBX 6 9 1 -1
BITMAP
FC
CC
CC
CC
CC
CC
CC
CC
FC
ENDCHAR
STARTCHAR 146
ENCODING 146
SWIDTH 576 0
DWIDTH 8 0
BBX 6 9 1 -1
BITMAP
FC
CC
CC
CC
CC
CC
CC
CC
FC
ENDCHAR
STARTCHAR 147
ENCODING 147
SWIDTH 576 0
DWIDTH 8 0
BBX 6 9 1 -1
BITMAP
FC
CC
CC
CC
CC
CC
CC
CC
FC
ENDCHAR
STARTCHAR 148
ENCODING 148
SWIDTH 576 0
DWIDTH 8 0
BBX 6 9 1 -1
BITMAP
FC
CC
CC
CC
CC
CC
CC
CC
FC
ENDCHAR
STARTCHAR 149
ENCODING 149
SWIDTH 576 0
DWIDTH 8 0
BBX 6 9 1 -1
BITMAP
FC
CC
CC
CC
CC
CC
CC
CC
FC
ENDCHAR
STARTCHAR 150
ENCODING 150
SWIDTH 576 0
DWIDTH 8 0
BBX 6 9 1 -1
BITMAP
FC
CC
CC
CC
CC
CC
CC
CC
FC
ENDCHAR
STARTCHAR 151
ENCODING 151
SWIDTH 576 0
DWIDTH 8 0
BBX 6 9 1 -1
BITMAP
FC
CC
CC
CC
CC
CC
CC
CC
FC
ENDCHAR
STARTCHAR 152
ENCODING 152
SWIDTH 576 0
DWIDTH 8 0
BBX 6 9 1 -1
BITMAP
FC
CC
CC
CC
CC
CC
CC
CC
FC
ENDCHAR
STARTCHAR 153
ENCODING 153
SWIDTH 576 0
DWIDTH 8 0
BBX 6 9 1 -1
BITMAP
FC
CC
CC
CC
CC
CC
CC
CC
FC
ENDCHAR
STARTCHAR 154
ENCODING 154
SWIDTH 576 0
DWIDTH 8 0
BBX 6 9 1 -1
BITMAP
FC
CC
CC
CC
CC
CC
CC
CC
FC
ENDCHAR
STARTCHAR 155
ENCODING 155
SWIDTH 576 0
DWIDTH 8 0
BBX 6 9 1 -1
BITMAP
FC
CC
CC
CC
CC
CC
CC
CC
FC
ENDCHAR
STARTCHAR 156
ENCODING 156
SWIDTH 576 0
DWIDTH 8 0
BBX 6 9 1 -1
BITMAP
FC
CC
CC
CC
CC
CC
CC
CC
FC
ENDCHAR
STARTCHAR 157
ENCODING 157
SWIDTH 576 0
DWIDTH 8 0
BBX 6 9 1 -1
BITMAP
FC
CC
CC
CC
CC
CC
CC
CC
FC
ENDCHAR
STARTCHAR 158
ENCODING 158
SWIDTH 576 0
DWIDTH 8 0
BBX 6 9 1 -1
BITMAP
FC
CC
CC
CC
CC
CC
CC
CC
FC
ENDCHAR
STARTCHAR 159
ENCODING 159
SWIDTH 576 0
DWIDTH 8 0
BBX 6 9 1 -1
BITMAP
FC
CC
CC
CC
CC
CC
CC
CC
FC
ENDCHAR
STARTCHAR 160
ENCODING 160
SWIDTH 576 0
DWIDTH 8 0
BBX 0 0 0 0
BITMAP
ENDCHAR
STARTCHAR 161
ENCODING 161
SWIDTH 576 0
DWIDTH 8 0
BBX 2 9 3 0
BITMAP
C0
C0
00
C0
C0
C0
C0
C0
C0
ENDCHAR
STARTCHAR 162
ENCODING 162
SWIDTH 576 0
DWIDTH 8 0
BBX 7 8 0 1
BITMAP
18
18
7E
D8
D8
7E
18
18
ENDCHAR
STARTCHAR 163
ENCODING 163
SWIDTH 576 0
DWIDTH 8 0
BBX 8 9 0 0
BITMAP
1E
33
30
30
78
30
30
60
FE
ENDCHAR
STARTCHAR 164
ENCODING 164
SWIDTH 576 0
DWIDTH 8 0
BBX 6 6 1 3
BITMAP
CC
78
CC
CC
78
CC
ENDCHAR
STARTCHAR 165
ENCODING 165
SWIDTH 576 0
DWIDTH 8 0
BBX 8 9 0 0
BITMAP
C3
C3
66
3C
18
7E
18
18
18
ENDCHAR
STARTCHAR 166
ENCODING 166
SWIDTH 576 0
DWIDTH 8 0
BBX 2 9 3 0
BITMAP
C0
C0
C0
C0
00
C0
C0
C0
C0
ENDCHAR
STARTCHAR 167
ENCODING 167
SWIDTH 576 0
DWIDTH 8 0
BBX 6 11 1 -2
BITMAP
78
C0
C0
78
CC
CC
CC
78
0C
0C
78
ENDCHAR
STARTCHAR 168
ENCODING 168
SWIDTH 576 0
DWIDTH 8 0
BBX 6 2 1 7
BITMAP
CC
CC
ENDCHAR
STARTCHAR 169
ENCODING 169
SWIDTH 576 0
DWIDTH 8 0
BBX 8 8 0 1
BITMAP
7E
81
9D
A1
A1
9D
81
7E
ENDCHAR
STARTCHAR 170
ENCODING 170
SWIDTH 576 0
DWIDTH 8 0
BBX 7 6 0 3
BITMAP
3C
CC
CC
7E
00
FE
ENDCHAR
STARTCHAR 171
ENCODING 171
SWIDTH 576 0
DWIDTH 8 0
BBX 8 5 0 2
BITMAP
33
66
CC
66
33
ENDCHAR
STARTCHAR 172
ENCODING 172
SWIDTH 576 0
DWIDTH 8 0
BBX 6 3 1 6
BITMAP
FC
0C
0C
ENDCHAR
STARTCHAR 173
ENCODING 173
SWIDTH 576 0
DWIDTH 8 0
BBX 6 1 1 4
BITMAP
FC
ENDCHAR
STARTCHAR 174
ENCODING 174
SWIDTH 576 0
DWIDTH 8 0
BBX 8 8 0 1
BITMAP
7E
81
B9
A5
B9
A5
81
7E
ENDCHAR
STARTCHAR 175
ENCODING 175
SWIDTH 576 0
DWIDTH 8 0
BBX 6 1 1 8
BITMAP
FC
ENDCHAR
STARTCHAR 176
ENCODING 176
SWIDTH 576 0
DWIDTH 8 0
BBX 6 4 1 5
BITMAP
78
CC
CC
78
ENDCHAR
STARTCHAR 177
ENCODING 177
SWIDTH 576 0
DWIDTH 8 0
BBX 6 9 1 0
BITMAP
30
30
30
FC
30
30
30
00
FC
ENDCHAR
STARTCHAR 178
ENCODING 178
SWIDTH 576 0
DWIDTH 8 0
BBX 5 7 1 2
BITMAP
F0
18
18
30
60
C0
F8
ENDCHAR
STARTCHAR 179
ENCODING 179
SWIDTH 576 0
DWIDTH 8 0
BBX 5 7 1 2
BITMAP
F0
18
18
70
18
18
F0
ENDCHAR
STARTCHAR 180
ENCODING 180
SWIDTH 576 0
DWIDTH 8 0
BBX 5 4 1 5
BITMAP
18
30
60
C0
ENDCHAR
STARTCHAR 181
ENCODING 181
SWIDTH 576 0
DWIDTH 8 0
BBX 7 8 1 -2
BITMAP
CC
CC
CC
CC
CC
FE
C0
C0
ENDCHAR
STARTCHAR 182
ENCODING 182
SWIDTH 576 0
DWIDTH 8 0
BBX 6 10 1 -1
BITMAP
7C
F4
F4
F4
74
14
14
14
14
14
ENDCHAR
STARTCHAR 183
ENCODING 183
SWIDTH 576 0
DWIDTH 8 0
BBX 2 2 3 4
BITMAP
C0
C0
ENDCHAR
STARTCHAR 184
ENCODING 184
SWIDTH 576 0
DWIDTH 8 0
BBX 3 2 3 -2
BITMAP
60
C0
ENDCHAR
STARTCHAR 185
ENCODING 185
SWIDTH 576 0
DWIDTH 8 0
BBX 3 7 2 2
BITMAP
60
E0
60
60
60
60
60
ENDCHAR
STARTCHAR 186
ENCODING 186
SWIDTH 576 0
DWIDTH 8 0
BBX 6 6 1 3
BITMAP
78
CC
CC
78
00
FC
ENDCHAR
STARTCHAR 187
ENCODING 187
SWIDTH 576 0
DWIDTH 8 0
BBX 8 5 0 2
BITMAP
CC
66
33
66
CC
ENDCHAR
STARTCHAR 188
ENCODING 188
SWIDTH 576 0
DWIDTH 8 0
BBX 8 9 0 0
BITMAP
40
C6
4C
58
72
66
CF
02
02
ENDCHAR
STARTCHAR 189
ENCODING 189
SWIDTH 576 0
DWIDTH 8 0
BBX 8 9 0 0
BITMAP
20
63
26
2C
3E
31
62
C4
0F
ENDCHAR
STARTCHAR 190
ENCODING 190
SWIDTH 576 0
DWIDTH 8 0
BBX 8 9 0 0
BITMAP
C0
23
66
2C
DA
36
6F
C2
02
ENDCHAR
STARTCHAR 191
ENCODING 191
SWIDTH 576 0
DWIDTH 8 0
BBX 6 9 1 0
BITMAP
30
30
00
30
60
C0
C0
CC
78
ENDCHAR
STARTCHAR 192
ENCODING 192
SWIDTH 576 0
DWIDTH 8 0
BBX 7 9 0 0
BITMAP
60
30
7C
C6
C6
FE
C6
C6
C6
ENDCHAR
STARTCHAR 193
ENCODING 193
SWIDTH 576 0
DWIDTH 8 0
BBX 7 9 0 0
BITMAP
0C
18
7C
C6
C6
FE
C6
C6
C6
ENDCHAR
STARTCHAR 194
ENCODING 194
SWIDTH 576 0
DWIDTH 8 0
BBX 7 9 0 0
BITMAP
30
CC
7C
C6
C6
C6
FE
C6
C6
ENDCHAR
STARTCHAR 195
ENCODING 195
SWIDTH 576 0
DWIDTH 8 0
BBX 7 9 0 0
BITMAP
72
9C
7C
C6
C6
FE
C6
C6
C6
ENDCHAR
STARTCHAR 196
ENCODING 196
SWIDTH 576 0
DWIDTH 8 0
BBX 7 9 0 0
BITMAP
C6
00
7C
C6
C6
FE
C6
C6
C6
ENDCHAR
STARTCHAR 197
ENCODING 197
SWIDTH 576 0
DWIDTH 8 0
BBX 7 9 0 0
BITMAP
38
44
38
6C
C6
C6
FE
C6
C6
ENDCHAR
STARTCHAR 198
ENCODING 198
SWIDTH 576 0
DWIDTH 8 0
BBX 8 9 0 0
BITMAP
1F
3C
3C
6C
6F
FC
CC
CC
CF
ENDCHAR
STARTCHAR 199
ENCODING 199
SWIDTH 576 0
DWIDTH 8 0
BBX 6 11 1 -2
BITMAP
3C
60
C0
C0
C0
C0
C0
60
3C
18
30
ENDCHAR
STARTCHAR 200
ENCODING 200
SWIDTH 576 0
DWIDTH 8 0
BBX 6 9 1 0
BITMAP
60
30
FC
C0
C0
F8
C0
C0
FC
ENDCHAR
STARTCHAR 201
ENCODING 201
SWIDTH 576 0
DWIDTH 8 0
BBX 6 9 1 0
BITMAP
18
30
FC
C0
C0
F8
C0
C0
FC
ENDCHAR
STARTCHAR 202
ENCODING 202
SWIDTH 576 0
DWIDTH 8 0
BBX 6 9 1 0
BITMAP
30
CC
FC
C0
C0
F8
C0
C0
FC
ENDCHAR
STARTCHAR 203
ENCODING 203
SWIDTH 576 0
DWIDTH 8 0
BBX 6 9 1 0
BITMAP
CC
00
FC
C0
C0
F8
C0
C0
FC
ENDCHAR
STARTCHAR 204
ENCODING 204
SWIDTH 576 0
DWIDTH 8 0
BBX 4 9 2 0
BITMAP
C0
60
F0
60
60
60
60
60
F0
ENDCHAR
STARTCHAR 205
ENCODING 205
SWIDTH 576 0
DWIDTH 8 0
BBX 4 9 2 0
BITMAP
30
60
F0
60
60
60
60
60
F0
ENDCHAR
STARTCHAR 206
ENCODING 206
SWIDTH 576 0
DWIDTH 8 0
BBX 6 9 1 0
BITMAP
30
CC
78
30
30
30
30
30
78
ENDCHAR
STARTCHAR 207
ENCODING 207
SWIDTH 576 0
DWIDTH 8 0
BBX 6 9 1 0
BITMAP
CC
00
78
30
30
30
30
30
78
ENDCHAR
STARTCHAR 208
ENCODING 208
SWIDTH 576 0
DWIDTH 8 0
BBX 7 9 0 0
BITMAP
78
6C
66
66
F6
66
66
6C
78
ENDCHAR
STARTCHAR 209
ENCODING 209
SWIDTH 576 0
DWIDTH 8 0
BBX 8 9 0 0
BITMAP
71
CE
E6
F6
DE
CE
C6
C6
C6
ENDCHAR
STARTCHAR 210
ENCODING 210
SWIDTH 576 0
DWIDTH 8 0
BBX 7 9 0 0
BITMAP
60
30
7C
C6
C6
C6
C6
C6
7C
ENDCHAR
STARTCHAR 211
ENCODING 211
SWIDTH 576 0
DWIDTH 8 0
BBX 7 9 0 0
BITMAP
0C
18
7C
C6
C6
C6
C6
C6
7C
ENDCHAR
STARTCHAR 212
ENCODING 212
SWIDTH 576 0
DWIDTH 8 0
BBX 7 9 0 0
BITMAP
30
CC
7C
C6
C6
C6
C6
C6
7C
ENDCHAR
STARTCHAR 213
ENCODING 213
SWIDTH 576 0
DWIDTH 8 0
BBX 8 9 0 0
BITMAP
71
8E
7C
C6
C6
C6
C6
C6
7C
ENDCHAR
STARTCHAR 214
ENCODING 214
SWIDTH 576 0
DWIDTH 8 0
BBX 7 9 0 0
BITMAP
C6
00
7C
C6
C6
C6
C6
C6
7C
ENDCHAR
STARTCHAR 215
ENCODING 215
SWIDTH 576 0
DWIDTH 8 0
BBX 7 6 0 1
BITMAP
C6
6C
38
38
6C
C6
ENDCHAR
STARTCHAR 216
ENCODING 216
SWIDTH 576 0
DWIDTH 8 0
BBX 8 9 0 0
BITMAP
7D
C6
CE
DE
D6
F6
E6
C6
FC
ENDCHAR
STARTCHAR 217
ENCODING 217
SWIDTH 576 0
DWIDTH 8 0
BBX 7 9 0 0
BITMAP
30
18
C6
C6
C6
C6
C6
C6
7C
ENDCHAR
STARTCHAR 218
ENCODING 218
SWIDTH 576 0
DWIDTH 8 0
BBX 7 9 0 0
BITMAP
18
30
C6
C6
C6
C6
C6
C6
7C
ENDCHAR
STARTCHAR 219
ENCODING 219
SWIDTH 576 0
DWIDTH 8 0
BBX 7 9 0 0
BITMAP
10
6C
C6
C6
C6
C6
C6
C6
7C
ENDCHAR
STARTCHAR 220
ENCODING 220
SWIDTH 576 0
DWIDTH 8 0
BBX 7 9 0 0
BITMAP
C6
00
C6
C6
C6
C6
C6
C6
7C
ENDCHAR
STARTCHAR 221
ENCODING 221
SWIDTH 576 0
DWIDTH 8 0
BBX 8 9 0 0
BITMAP
0C
18
C3
66
3C
18
18
18
18
ENDCHAR
STARTCHAR 222
ENCODING 222
SWIDTH 576 0
DWIDTH 8 0
BBX 7 9 0 0
BITMAP
C0
C0
FC
C6
C6
FC
C0
C0
C0
ENDCHAR
STARTCHAR 223
ENCODING 223
SWIDTH 576 0
DWIDTH 8 0
BBX 6 11 1 -2
BITMAP
78
CC
CC
CC
D8
CC
CC
CC
D8
C0
C0
ENDCHAR
STARTCHAR 224
ENCODING 224
SWIDTH 576 0
DWIDTH 8 0
BBX 6 9 1 0
BITMAP
C0
60
00
78
0C
7C
CC
CC
7C
ENDCHAR
STARTCHAR 225
ENCODING 225
SWIDTH 576 0
DWIDTH 8 0
BBX 6 9 1 0
BITMAP
0C
18
00
78
0C
7C
CC
CC
7C
ENDCHAR
STARTCHAR 226
ENCODING 226
SWIDTH 576 0
DWIDTH 8 0
BBX 6 9 1 0
BITMAP
30
CC
00
78
0C
7C
CC
CC
7C
ENDCHAR
STARTCHAR 227
ENCODING 227
SWIDTH 576 0
DWIDTH 8 0
BBX 8 9 0 0
BITMAP
71
8E
00
3C
06
3E
66
66
3E
ENDCHAR
STARTCHAR 228
ENCODING 228
SWIDTH 576 0
DWIDTH 8 0
BBX 6 8 1 0
BITMAP
CC
00
78
0C
7C
CC
CC
7C
ENDCHAR
STARTCHAR 229
ENCODING 229
SWIDTH 576 0
DWIDTH 8 0
BBX 6 9 1 0
BITMAP
30
48
30
78
0C
7C
CC
CC
7C
ENDCHAR
STARTCHAR 230
ENCODING 230
SWIDTH 576 0
DWIDTH 8 0
BBX 8 6 0 0
BITMAP
7E
1B
7F
D8
D8
77
ENDCHAR
STARTCHAR 231
ENCODING 231
SWIDTH 576 0
DWIDTH 8 0
BBX 5 8 1 -2
BITMAP
78
C0
C0
C0
C0
78
30
60
ENDCHAR
STARTCHAR 232
ENCODING 232
SWIDTH 576 0
DWIDTH 8 0
BBX 6 9 1 0
BITMAP
C0
60
00
78
CC
FC
C0
C0
78
ENDCHAR
STARTCHAR 233
ENCODING 233
SWIDTH 576 0
DWIDTH 8 0
BBX 6 9 1 0
BITMAP
0C
18
00
78
CC
FC
C0
C0
78
ENDCHAR
STARTCHAR 234
ENCODING 234
SWIDTH 576 0
DWIDTH 8 0
BBX 6 9 1 0
BITMAP
30
CC
00
78
CC
FC
C0
C0
78
ENDCHAR
STARTCHAR 235
ENCODING 235
SWIDTH 576 0
DWIDTH 8 0
BBX 6 8 1 0
BITMAP
CC
00
78
CC
FC
C0
C0
78
ENDCHAR
STARTCHAR 236
ENCODING 236
SWIDTH 576 0
DWIDTH 8 0
BBX 4 9 2 0
BITMAP
C0
60
00
60
60
60
60
60
30
ENDCHAR
STARTCHAR 237
ENCODING 237
SWIDTH 576 0
DWIDTH 8 0
BBX 3 9 2 0
BITMAP
60
C0
00
C0
C0
C0
C0
C0
60
ENDCHAR
STARTCHAR 238
ENCODING 238
SWIDTH 576 0
DWIDTH 8 0
BBX 6 9 1 0
BITMAP
30
CC
00
30
30
30
30
30
18
ENDCHAR
STARTCHAR 239
ENCODING 239
SWIDTH 576 0
DWIDTH 8 0
BBX 6 8 1 0
BITMAP
CC
00
30
30
30
30
30
18
ENDCHAR
STARTCHAR 240
ENCODING 240
SWIDTH 576 0
DWIDTH 8 0
BBX 7 9 0 0
BITMAP
C0
60
FC
18
3C
66
66
66
3C
ENDCHAR
STARTCHAR 241
ENCODING 241
SWIDTH 576 0
DWIDTH 8 0
BBX 8 9 0 0
BITMAP
71
8E
00
7C
66
66
66
66
66
ENDCHAR
STARTCHAR 242
ENCODING 242
SWIDTH 576 0
DWIDTH 8 0
BBX 6 9 1 0
BITMAP
C0
60
00
78
CC
CC
CC
CC
78
ENDCHAR
STARTCHAR 243
ENCODING 243
SWIDTH 576 0
DWIDTH 8 0
BBX 6 9 1 0
BITMAP
0C
18
00
78
CC
CC
CC
CC
78
ENDCHAR
STARTCHAR 244
ENCODING 244
SWIDTH 576 0
DWIDTH 8 0
BBX 6 9 1 0
BITMAP
30
CC
00
78
CC
CC
CC
CC
78
ENDCHAR
STARTCHAR 245
ENCODING 245
SWIDTH 576 0
DWIDTH 8 0
BBX 8 9 0 0
BITMAP
71
8E
00
3C
66
66
66
66
3C
ENDCHAR
STARTCHAR 246
ENCODING 246
SWIDTH 576 0
DWIDTH 8 0
BBX 6 8 1 0
BITMAP
CC
00
78
CC
CC
CC
CC
78
ENDCHAR
STARTCHAR 247
ENCODING 247
SWIDTH 576 0
DWIDTH 8 0
BBX 6 7 1 1
BITMAP
30
30
00
FC
00
30
30
ENDCHAR
STARTCHAR 248
ENCODING 248
SWIDTH 576 0
DWIDTH 8 0
BBX 7 6 0 0
BITMAP
7E
CE
DE
F6
E6
FC
ENDCHAR
STARTCHAR 249
ENCODING 249
SWIDTH 576 0
DWIDTH 8 0
BBX 6 9 1 0
BITMAP
60
30
00
CC
CC
CC
CC
CC
7C
ENDCHAR
STARTCHAR 250
ENCODING 250
SWIDTH 576 0
DWIDTH 8 0
BBX 6 9 1 0
BITMAP
18
30
00
CC
CC
CC
CC
CC
7C
ENDCHAR
STARTCHAR 251
ENCODING 251
SWIDTH 576 0
DWIDTH 8 0
BBX 6 9 1 0
BITMAP
30
CC
00
CC
CC
CC
CC
CC
7C
ENDCHAR
STARTCHAR 252
ENCODING 252
SWIDTH 576 0
DWIDTH 8 0
BBX 6 8 1 0
BITMAP
CC
00
CC
CC
CC
CC
CC
7C
ENDCHAR
STARTCHAR 253
ENCODING 253
SWIDTH 576 0
DWIDTH 8 0
BBX 6 11 1 -2
BITMAP
18
30
00
CC
CC
CC
CC
78
30
60
C0
ENDCHAR
STARTCHAR 254
ENCODING 254
SWIDTH 576 0
DWIDTH 8 0
BBX 6 11 1 -2
BITMAP
C0
C0
C0
F8
CC
CC
CC
F8
C0
C0
C0
ENDCHAR
STARTCHAR 255
ENCODING 255
SWIDTH 576 0
DWIDTH 8 0
BBX 6 10 1 -2
BITMAP
CC
00
CC
CC
CC
CC
78
30
60
C0
ENDCHAR
ENDFONT
